<mxfile host="65bd71144e">
    <diagram id="m_zMmPc15LjbaGrJOXDu" name="Page-1">
        <mxGraphModel dx="986" dy="1676" grid="1" gridSize="10" guides="1" tooltips="1" connect="1" arrows="1" fold="1" page="1" pageScale="1" pageWidth="850" pageHeight="1100" math="0" shadow="0">
            <root>
                <mxCell id="0"/>
                <mxCell id="1" parent="0"/>
                <mxCell id="4" value="" style="edgeStyle=none;html=1;strokeColor=#CC0000;" edge="1" parent="1" source="2" target="3">
                    <mxGeometry relative="1" as="geometry"/>
                </mxCell>
                <mxCell id="2" value="INICIO" style="ellipse;whiteSpace=wrap;html=1;fillColor=#006600;" vertex="1" parent="1">
                    <mxGeometry x="365" y="-1080" width="120" height="80" as="geometry"/>
                </mxCell>
                <mxCell id="9" value="" style="edgeStyle=none;html=1;strokeColor=#FF0000;" edge="1" parent="1" source="3" target="8">
                    <mxGeometry relative="1" as="geometry"/>
                </mxCell>
                <mxCell id="3" value="n1&lt;br&gt;n2&lt;br&gt;n3" style="shape=parallelogram;perimeter=parallelogramPerimeter;whiteSpace=wrap;html=1;fixedSize=1;fillColor=#666600;" vertex="1" parent="1">
                    <mxGeometry x="365" y="-980" width="120" height="60" as="geometry"/>
                </mxCell>
                <mxCell id="8" value="n1&amp;gt;n2 y n1&amp;gt;n3" style="rhombus;whiteSpace=wrap;html=1;fillColor=#331A00;" vertex="1" parent="1">
                    <mxGeometry x="380" y="-880" width="80" height="80" as="geometry"/>
                </mxCell>
                <mxCell id="12" value="" style="endArrow=none;html=1;exitX=1;exitY=0.5;exitDx=0;exitDy=0;strokeColor=#990000;" edge="1" parent="1" source="8">
                    <mxGeometry width="50" height="50" relative="1" as="geometry">
                        <mxPoint x="485" y="-810" as="sourcePoint"/>
                        <mxPoint x="580" y="-840" as="targetPoint"/>
                    </mxGeometry>
                </mxCell>
                <mxCell id="14" value="" style="endArrow=none;html=1;entryX=0;entryY=0.5;entryDx=0;entryDy=0;fillColor=#FF3333;strokeColor=#FF0000;" edge="1" parent="1" target="8">
                    <mxGeometry width="50" height="50" relative="1" as="geometry">
                        <mxPoint x="260" y="-840" as="sourcePoint"/>
                        <mxPoint x="330" y="-820" as="targetPoint"/>
                    </mxGeometry>
                </mxCell>
                <mxCell id="43" value="n1 &quot;Es el mayor&quot;" style="shape=document;whiteSpace=wrap;html=1;boundedLbl=1;fillColor=#660033;" vertex="1" parent="1">
                    <mxGeometry x="520" y="-780" width="120" height="80" as="geometry"/>
                </mxCell>
                <mxCell id="44" value="" style="endArrow=none;html=1;exitX=0.5;exitY=0;exitDx=0;exitDy=0;strokeColor=#CC0000;" edge="1" parent="1" source="43">
                    <mxGeometry width="50" height="50" relative="1" as="geometry">
                        <mxPoint x="490" y="-770" as="sourcePoint"/>
                        <mxPoint x="580" y="-840" as="targetPoint"/>
                    </mxGeometry>
                </mxCell>
                <mxCell id="47" value="" style="endArrow=none;html=1;exitX=0;exitY=0.5;exitDx=0;exitDy=0;strokeColor=#CC0000;" edge="1" parent="1" source="50">
                    <mxGeometry width="50" height="50" relative="1" as="geometry">
                        <mxPoint x="260" y="-790" as="sourcePoint"/>
                        <mxPoint x="260" y="-840" as="targetPoint"/>
                    </mxGeometry>
                </mxCell>
                <mxCell id="50" value="n2&amp;gt;n1 y n2&amp;gt;n3" style="rhombus;whiteSpace=wrap;html=1;direction=south;fillColor=#330066;" vertex="1" parent="1">
                    <mxGeometry x="220" y="-790" width="80" height="80" as="geometry"/>
                </mxCell>
                <mxCell id="51" value="" style="endArrow=none;html=1;exitX=0.5;exitY=0;exitDx=0;exitDy=0;strokeColor=#CC0000;" edge="1" parent="1" source="50">
                    <mxGeometry width="50" height="50" relative="1" as="geometry">
                        <mxPoint x="310" y="-750" as="sourcePoint"/>
                        <mxPoint x="370" y="-750" as="targetPoint"/>
                    </mxGeometry>
                </mxCell>
                <mxCell id="52" value="" style="endArrow=none;html=1;exitX=0.34;exitY=-0.01;exitDx=0;exitDy=0;exitPerimeter=0;strokeColor=#CC0000;" edge="1" parent="1" source="53">
                    <mxGeometry width="50" height="50" relative="1" as="geometry">
                        <mxPoint x="370" y="-690" as="sourcePoint"/>
                        <mxPoint x="370" y="-750" as="targetPoint"/>
                    </mxGeometry>
                </mxCell>
                <mxCell id="53" value="n2 &quot;Es el mayor&quot;" style="shape=document;whiteSpace=wrap;html=1;boundedLbl=1;fillColor=#001933;" vertex="1" parent="1">
                    <mxGeometry x="330" y="-700" width="120" height="80" as="geometry"/>
                </mxCell>
                <mxCell id="54" value="" style="endArrow=none;html=1;entryX=0.5;entryY=1;entryDx=0;entryDy=0;fillColor=#CC0000;strokeColor=#CC0000;" edge="1" parent="1" target="50">
                    <mxGeometry width="50" height="50" relative="1" as="geometry">
                        <mxPoint x="150" y="-750" as="sourcePoint"/>
                        <mxPoint x="200" y="-750" as="targetPoint"/>
                    </mxGeometry>
                </mxCell>
                <mxCell id="55" value="" style="endArrow=none;html=1;strokeColor=#CC0000;" edge="1" parent="1" source="56">
                    <mxGeometry width="50" height="50" relative="1" as="geometry">
                        <mxPoint x="150" y="-680" as="sourcePoint"/>
                        <mxPoint x="150" y="-750" as="targetPoint"/>
                    </mxGeometry>
                </mxCell>
                <mxCell id="56" value="n3 &quot;Es el mayor&quot;" style="shape=document;whiteSpace=wrap;html=1;boundedLbl=1;fillColor=#666600;" vertex="1" parent="1">
                    <mxGeometry x="90" y="-680" width="120" height="80" as="geometry"/>
                </mxCell>
                <mxCell id="57" value="" style="endArrow=none;html=1;entryX=0.52;entryY=0.88;entryDx=0;entryDy=0;entryPerimeter=0;strokeColor=#FF0000;" edge="1" parent="1" target="56">
                    <mxGeometry width="50" height="50" relative="1" as="geometry">
                        <mxPoint x="152" y="-530" as="sourcePoint"/>
                        <mxPoint x="180" y="-575" as="targetPoint"/>
                    </mxGeometry>
                </mxCell>
                <mxCell id="58" value="" style="endArrow=none;html=1;entryX=0.5;entryY=0.84;entryDx=0;entryDy=0;entryPerimeter=0;strokeColor=#990000;" edge="1" parent="1" target="53">
                    <mxGeometry width="50" height="50" relative="1" as="geometry">
                        <mxPoint x="390" y="-530" as="sourcePoint"/>
                        <mxPoint x="390" y="-575" as="targetPoint"/>
                    </mxGeometry>
                </mxCell>
                <mxCell id="59" value="" style="endArrow=none;html=1;entryX=0.537;entryY=0.88;entryDx=0;entryDy=0;entryPerimeter=0;strokeColor=#CC0000;" edge="1" parent="1" target="43">
                    <mxGeometry width="50" height="50" relative="1" as="geometry">
                        <mxPoint x="580" y="-530" as="sourcePoint"/>
                        <mxPoint x="590" y="-650" as="targetPoint"/>
                    </mxGeometry>
                </mxCell>
                <mxCell id="60" value="" style="endArrow=none;html=1;strokeColor=#CC0000;" edge="1" parent="1">
                    <mxGeometry width="50" height="50" relative="1" as="geometry">
                        <mxPoint x="150" y="-530" as="sourcePoint"/>
                        <mxPoint x="580" y="-530" as="targetPoint"/>
                    </mxGeometry>
                </mxCell>
                <mxCell id="61" value="" style="endArrow=none;html=1;strokeColor=#FF0000;" edge="1" parent="1" source="62">
                    <mxGeometry width="50" height="50" relative="1" as="geometry">
                        <mxPoint x="340" y="-450" as="sourcePoint"/>
                        <mxPoint x="340" y="-530" as="targetPoint"/>
                    </mxGeometry>
                </mxCell>
                <mxCell id="62" value="FIN" style="ellipse;whiteSpace=wrap;html=1;fillColor=#990099;" vertex="1" parent="1">
                    <mxGeometry x="280" y="-470" width="120" height="80" as="geometry"/>
                </mxCell>
            </root>
        </mxGraphModel>
    </diagram>
</mxfile>